<?xml version="1.0" standalone="no"?>
<!DOCTYPE svg PUBLIC "-//W3C//DTD SVG 20010904//EN"
 "http://www.w3.org/TR/2001/REC-SVG-20010904/DTD/svg10.dtd">
<svg version="1.0" xmlns="http://www.w3.org/2000/svg"
 width="350.000000pt" height="350.000000pt" viewBox="0 0 350.000000 350.000000"
 preserveAspectRatio="xMidYMid meet">
<metadata>
Created by potrace 1.11, written by Peter Selinger 2001-2013
</metadata>
<g transform="translate(0.000000,350.000000) scale(0.100000,-0.100000)"
fill="#000000" stroke="none">
<path d="M984 2628 c4 -18 20 -20 41 -3 19 14 18 15 -7 6 -17 -7 -28 -7 -32 0
-2 5 -3 4 -2 -3z"/>
<path d="M2350 2631 c0 -6 3 -11 8 -12 4 0 15 -2 25 -4 18 -3 23 10 7 20 -5 3
-10 1 -10 -6 0 -8 -4 -8 -15 1 -10 9 -15 9 -15 1z"/>
<path d="M2240 2611 c0 -9 -152 -11 -617 -11 l-617 1 -19 -23 c-18 -22 -18
-22 -8 -1 8 16 8 24 -1 29 -7 4 -8 3 -4 -4 4 -7 3 -12 -3 -12 -5 0 -8 -12 -6
-27 2 -17 -6 -35 -22 -51 -13 -13 -22 -27 -19 -30 3 -3 -3 -20 -14 -37 -19
-32 -20 -33 -1 -56 10 -13 16 -30 13 -38 -3 -9 0 -11 8 -6 8 5 11 4 6 -3 -7
-12 -36 -5 -36 9 0 5 6 9 13 9 8 0 7 4 -3 10 -22 14 -26 12 -26 -10 0 -11 4
-20 9 -20 4 0 6 -4 3 -9 -3 -4 5 -8 17 -8 40 -1 46 -3 51 -20 3 -10 5 -22 5
-27 0 -5 3 -12 8 -15 13 -10 46 -64 34 -57 -6 4 -12 0 -12 -11 -1 -10 -4 -3
-8 15 -6 33 -23 45 -29 20 -2 -9 0 -8 8 2 9 12 10 6 8 -26 -3 -42 13 -55 32
-25 4 8 13 10 19 7 6 -4 9 -12 6 -17 -4 -5 -1 -9 4 -9 6 0 10 -3 9 -7 -1 -5 3
-18 10 -29 6 -12 8 -24 5 -28 -3 -3 1 -6 10 -6 10 0 14 -5 11 -15 -4 -9 0 -15
8 -15 16 0 61 -91 65 -129 2 -27 30 -61 47 -58 6 1 11 -6 11 -16 0 -10 5 -21
11 -25 16 -11 76 -114 62 -107 -7 4 -6 1 2 -7 9 -7 14 -21 12 -30 -3 -14 1
-16 15 -11 16 6 16 5 5 -10 -8 -9 -10 -22 -6 -28 4 -7 -1 -18 -12 -26 -17 -13
-17 -13 6 -10 17 3 24 10 22 21 -2 9 1 16 5 16 13 0 33 -38 28 -52 -3 -7 5
-24 16 -38 11 -14 18 -19 14 -12 -3 6 -4 12 -1 12 3 0 13 -15 22 -32 13 -25
13 -30 3 -21 -12 9 -14 6 -15 -22 0 -19 3 -32 7 -29 5 2 6 11 3 19 -5 12 -1
13 35 6 2 -1 -3 -9 -10 -18 -12 -14 -12 -16 2 -11 12 5 16 -3 17 -41 1 -25 -1
-41 -5 -34 -5 6 -9 -8 -10 -33 -1 -24 2 -46 6 -49 5 -2 6 7 3 20 -2 14 0 25 5
25 5 0 10 16 11 36 1 20 3 38 5 40 2 2 13 -14 25 -36 20 -38 14 -59 -7 -22
-10 16 -10 16 -11 0 0 -17 16 -32 35 -33 6 0 10 -4 10 -10 0 -5 -6 -9 -15 -7
-11 2 -10 0 3 -8 9 -6 15 -15 12 -20 -3 -4 2 -20 9 -36 11 -19 12 -33 5 -46
-11 -20 -29 -24 -29 -7 0 5 5 7 12 3 7 -4 8 -3 4 4 -4 6 -13 9 -21 6 -11 -5
-12 -10 -4 -26 8 -15 8 -22 -1 -28 -6 -4 -12 -11 -12 -16 0 -5 -4 -18 -8 -28
-6 -19 -7 -18 -12 2 -4 12 -2 20 2 17 5 -3 11 -1 15 5 3 5 -2 10 -12 10 -25 0
-43 19 -36 38 5 11 2 13 -8 8 -8 -4 -5 0 6 9 l20 17 -20 -4 c-12 -2 -19 2 -18
10 2 6 -4 12 -13 12 -8 0 -13 4 -9 10 3 5 -3 18 -13 28 -19 19 -36 52 -34 65
1 4 -2 7 -8 7 -5 0 -14 9 -20 20 -9 17 -8 19 7 13 16 -6 16 -5 5 10 -8 9 -17
15 -20 14 -8 -2 -12 7 -12 24 0 5 6 7 13 3 9 -6 8 -3 -1 8 -8 9 -19 15 -26 12
-6 -2 -27 25 -49 66 -21 38 -42 72 -48 75 -5 4 -7 11 -4 16 4 5 2 9 -3 9 -6 0
-13 7 -16 16 -5 14 -4 15 8 5 11 -9 16 -9 22 0 4 8 3 9 -4 5 -13 -8 -17 6 -5
18 15 14 11 35 -5 29 -14 -5 -14 -3 2 15 16 18 16 22 4 22 -9 0 -18 -10 -21
-22 -6 -22 -6 -22 -32 5 -15 14 -24 30 -21 36 4 5 1 13 -5 17 -8 5 -9 3 -4 -7
17 -31 -13 8 -34 43 -16 26 -18 38 -10 44 8 5 9 3 4 -6 -5 -8 -4 -11 2 -7 6 4
16 0 23 -8 13 -16 30 -11 30 8 0 7 -4 6 -10 -3 -8 -12 -10 -11 -10 6 0 17 -6
20 -30 19 -32 -2 -52 18 -42 44 3 10 0 11 -9 5 -11 -6 -11 -4 1 10 20 25 21
42 4 79 -11 24 -13 25 -9 7 11 -45 6 -80 -12 -73 -10 4 -11 9 -2 19 6 7 9 19
6 26 -3 8 -6 6 -6 -5 -1 -21 -16 -14 -32 15 -8 15 -8 19 0 14 6 -4 11 -2 11 4
0 6 5 8 12 4 6 -4 8 -3 5 4 -4 5 -16 8 -26 5 -10 -3 -22 1 -26 8 -5 7 -4 10 1
6 6 -3 10 7 9 22 0 15 -5 28 -12 28 -14 0 -13 -19 2 -29 6 -5 6 -8 -2 -8 -20
0 -31 31 -22 62 4 17 4 38 -2 51 -8 19 -9 18 -4 -6 4 -18 2 -26 -4 -22 -7 3
-8 0 -5 -9 11 -27 -4 -17 -25 18 -24 38 -28 61 -8 50 8 -5 8 -2 -2 9 -11 14
-11 20 -1 32 7 9 10 18 6 22 -10 10 -56 13 -56 3 0 -4 11 -7 25 -5 28 3 34
-12 8 -22 -10 -4 -23 2 -34 15 -20 25 -54 30 -45 7 3 -8 2 -15 -3 -15 -5 0
-11 -9 -14 -21 -4 -14 -10 -18 -18 -13 -10 6 -10 9 -1 12 10 3 10 7 0 20 -11
13 -10 15 5 9 23 -8 22 0 -1 12 -17 9 -19 6 -17 -24 2 -18 6 -38 9 -44 4 -6
-3 -25 -15 -42 -12 -17 -22 -44 -23 -59 -1 -15 -4 -26 -8 -24 -4 3 -6 -4 -5
-14 0 -10 7 -19 14 -19 6 0 10 4 7 9 -3 4 -3 8 0 8 11 0 45 -79 37 -85 -5 -3
-12 1 -14 7 -4 8 -6 9 -6 2 -1 -6 7 -18 16 -25 14 -12 16 -12 9 0 -15 24 16 7
33 -19 9 -14 11 -21 4 -17 -9 6 -11 3 -7 -7 3 -9 1 -16 -5 -16 -6 0 -11 -4
-11 -9 0 -5 11 -8 24 -5 14 2 28 -1 32 -7 4 -7 3 -9 -2 -6 -5 3 -10 -3 -10
-13 0 -14 3 -16 13 -8 11 8 12 7 7 -7 -5 -13 -4 -16 4 -11 8 5 10 1 5 -10 -3
-10 -2 -15 3 -12 5 3 21 -14 36 -39 16 -24 22 -41 15 -37 -6 4 -1 -5 12 -19
14 -15 19 -27 13 -27 -7 0 -12 5 -12 10 0 6 -5 10 -12 10 -6 0 -4 -8 7 -20 9
-10 22 -18 29 -17 6 1 10 -6 8 -17 -2 -10 1 -15 7 -11 7 3 8 0 5 -9 -3 -9 -1
-16 5 -16 15 0 65 -81 63 -103 0 -11 4 -15 11 -10 7 4 6 -1 -2 -10 -12 -15
-12 -17 0 -12 10 4 29 -21 61 -75 26 -44 42 -77 35 -74 -7 4 0 -5 16 -21 32
-33 37 -57 6 -29 -16 14 -21 15 -17 4 2 -8 14 -20 25 -25 11 -6 18 -16 15 -23
-2 -7 1 -11 8 -10 17 4 63 -69 48 -78 -6 -4 -8 -3 -5 3 3 5 0 10 -8 10 -11 0
-12 -4 -4 -13 6 -7 8 -17 6 -22 -3 -4 -1 -14 4 -22 9 -13 10 -13 8 0 -3 27 1
40 11 40 5 0 6 -7 3 -17 -5 -11 -3 -14 6 -8 10 6 11 3 1 -15 -7 -12 -8 -20 -3
-17 16 10 47 -23 48 -53 1 -16 5 -33 10 -37 4 -5 5 -2 1 5 -4 6 -3 12 2 12 5
0 14 -10 20 -22 7 -13 20 -34 29 -48 10 -13 13 -21 6 -17 -6 4 -14 3 -17 -2
-4 -5 48 -9 122 -10 l127 -1 25 37 c13 21 25 43 25 48 1 6 6 9 13 7 7 -1 12
10 13 25 0 25 1 26 10 8 8 -18 9 -18 7 5 -1 32 11 62 23 54 5 -3 6 -11 3 -17
-4 -7 -3 -9 1 -4 13 11 13 47 1 40 -7 -5 -7 -2 0 8 23 29 68 104 69 114 1 6 7
9 14 7 9 -2 11 3 7 15 -4 12 1 9 14 -7 l21 -25 -16 33 c-8 17 -12 32 -7 32 5
0 14 -10 19 -22 10 -22 11 -22 9 4 0 14 -4 24 -8 22 -4 -2 -9 0 -13 6 -3 5 -1
10 5 10 6 0 9 4 6 8 -3 5 7 22 22 39 16 16 26 35 24 41 -2 7 2 10 11 7 9 -4
12 -15 9 -33 -3 -15 -2 -25 1 -22 3 3 7 17 9 32 2 15 7 30 11 34 4 4 7 12 7
18 0 5 -6 2 -13 -9 -24 -31 -25 -2 -2 38 19 33 24 36 35 22 7 -8 16 -15 21
-15 5 0 0 9 -11 20 -17 17 -18 23 -8 40 7 11 18 20 25 20 17 0 29 -23 15 -28
-7 -2 -12 -11 -12 -20 0 -15 2 -15 11 -2 9 12 10 11 6 -7 -3 -13 -1 -23 4 -23
16 0 6 71 -13 84 -10 7 -15 16 -11 19 3 4 11 3 17 -3 8 -6 12 -3 12 10 0 10
-3 17 -7 14 -4 -2 -2 7 4 21 7 14 17 23 24 21 7 -3 10 3 8 15 -2 10 0 19 6 19
5 0 8 3 8 8 -3 19 2 33 11 27 6 -3 10 -1 10 5 0 6 4 9 8 6 4 -2 14 -1 21 3 10
6 9 10 -4 14 -10 5 -14 3 -9 -5 4 -7 3 -8 -4 -4 -8 5 -9 13 -3 25 13 24 41 46
41 33 0 -6 -8 -16 -17 -22 -16 -10 -16 -10 2 -8 16 3 20 11 20 40 1 51 11 57
20 12 5 -27 9 -34 15 -23 6 8 5 18 0 23 -14 14 -12 49 3 65 10 11 9 12 -3 6
-12 -6 -12 -5 -4 4 9 9 17 10 31 2 23 -11 43 2 42 28 0 10 -4 7 -9 -7 -8 -19
-13 -21 -30 -12 -25 14 -26 20 -1 15 14 -3 18 1 14 11 -3 8 1 14 8 14 7 0 9 3
6 6 -4 4 -13 1 -22 -6 -20 -16 -19 -6 1 14 20 21 34 20 34 -1 0 -14 3 -14 12
-5 10 10 10 15 -2 22 -8 6 -21 7 -29 5 -11 -5 -12 -3 -1 10 7 9 19 14 27 11
10 -4 11 -1 3 14 -8 15 -6 21 7 28 26 14 82 9 92 -7 7 -11 9 -11 14 0 4 10 8
11 14 2 6 -8 13 -8 27 3 18 13 16 14 -22 14 -23 0 -42 5 -42 10 0 17 80 12 87
-6 5 -13 7 -13 14 -2 14 21 11 23 -45 26 -37 2 -57 -1 -63 -10 -4 -7 -22 -13
-39 -13 -28 -1 -30 1 -20 17 12 21 36 24 36 6 0 -10 2 -10 9 0 6 9 29 12 79
10 l71 -3 -26 -45 c-14 -25 -32 -58 -40 -73 -9 -16 -20 -26 -27 -24 -7 3 -11
-6 -11 -22 0 -16 -5 -25 -13 -23 -6 1 -11 -3 -10 -10 2 -8 -9 -13 -27 -13 -26
0 -30 -3 -28 -25 3 -24 2 -24 -12 -6 -8 11 -15 15 -15 10 0 -6 5 -15 12 -22 7
-7 8 -16 2 -25 -5 -7 -1 -4 9 6 11 12 15 27 11 40 -4 14 -2 18 7 15 8 -3 13
-12 13 -21 -1 -9 2 -15 6 -12 4 3 -13 -31 -38 -75 -33 -59 -49 -79 -61 -75
-10 3 -22 -4 -30 -18 -13 -21 -13 -22 6 -4 11 9 22 14 26 11 9 -9 -4 -35 -14
-28 -5 3 -9 0 -9 -6 0 -6 -5 -8 -12 -4 -7 4 -8 3 -4 -5 4 -6 13 -8 19 -4 7 4
-1 -10 -16 -30 -15 -20 -25 -37 -22 -37 3 0 -8 -20 -26 -45 -18 -25 -36 -45
-41 -45 -4 0 -8 -5 -8 -11 0 -5 5 -7 11 -3 7 4 3 -7 -7 -25 -12 -21 -24 -29
-34 -26 -11 5 -12 3 -4 -5 9 -9 5 -23 -14 -57 -18 -34 -27 -41 -34 -31 -6 9
-7 6 -3 -9 4 -15 2 -23 -6 -23 -7 0 -10 -3 -6 -6 3 -3 -3 -15 -13 -27 -11 -11
-16 -25 -13 -31 4 -7 1 -6 -8 1 -12 10 -15 8 -15 -7 0 -10 4 -16 9 -13 5 3 3
-4 -5 -16 -7 -12 -16 -21 -21 -21 -4 0 -5 -5 -1 -11 4 -7 -2 -7 -17 1 -19 11
-24 10 -36 -6 -17 -23 -16 -29 5 -45 9 -7 14 -10 10 -5 -11 12 11 48 24 40 7
-5 5 -12 -7 -21 -11 -7 -16 -13 -12 -13 4 0 1 -13 -8 -30 -9 -16 -20 -30 -25
-30 -6 0 -9 -3 -8 -7 0 -5 -3 -19 -8 -31 -9 -21 -12 -22 -23 -8 -8 10 -11 26
-7 42 5 17 3 24 -4 19 -6 -4 -11 -19 -10 -33 1 -15 1 -30 0 -34 -1 -5 -3 -21
-4 -38 l-1 -30 121 0 c104 0 124 3 135 17 13 16 12 17 -3 5 -11 -9 -8 2 10 37
15 27 31 47 35 44 5 -3 4 -9 -3 -13 -7 -4 -8 -10 -3 -13 5 -4 19 12 31 33 11
22 17 40 11 40 -5 0 -9 -4 -9 -10 0 -5 -5 -10 -10 -10 -6 0 -5 8 2 19 7 11 16
17 22 14 5 -4 7 1 3 10 -3 10 -2 17 3 17 6 0 9 4 7 9 -1 5 7 17 18 26 11 9 14
13 7 10 -10 -5 -9 2 4 26 9 19 20 36 23 39 3 3 17 26 30 53 13 26 28 47 33 47
5 0 6 5 3 10 -3 6 1 13 9 16 9 3 14 10 11 14 -3 5 1 15 9 23 8 8 12 17 9 21
-3 3 2 8 11 12 9 3 13 10 10 15 -3 5 0 9 6 9 6 0 9 4 5 9 -9 16 22 39 49 36
23 -3 26 1 26 26 0 28 -2 29 -22 18 -22 -11 -22 -11 -7 7 9 10 20 29 24 42 6
21 25 22 25 1 0 -6 -4 -8 -8 -5 -5 3 -9 -1 -9 -8 0 -11 4 -12 18 -3 14 8 15
15 6 34 -8 18 -7 27 6 41 10 10 15 21 12 24 -7 6 56 69 64 64 3 -2 7 7 7 20 2
24 1 24 -13 7 -8 -10 -11 -11 -7 -3 4 8 14 23 22 33 8 9 12 17 7 17 -4 0 3 9
16 21 13 11 18 18 12 14 -9 -4 -11 -1 -7 9 3 9 10 14 14 11 4 -3 7 3 6 13 -1
14 7 17 41 16 23 0 40 4 37 8 -3 5 -10 5 -16 2 -6 -4 -8 -1 -6 7 3 8 12 13 19
11 11 -3 12 -1 2 9 -16 16 -17 33 -1 23 7 -4 8 -3 4 4 -4 6 -14 8 -23 5 -19
-7 -14 3 23 53 13 17 20 35 16 39 -4 5 -1 5 6 1 9 -5 12 -3 10 5 -1 8 0 14 3
14 3 0 13 6 22 14 17 14 24 3 9 -14 -5 -6 -3 -21 4 -35 10 -18 14 -20 14 -8 0
9 -5 20 -10 23 -7 4 -7 12 -2 18 5 7 9 23 10 37 1 17 -2 20 -7 11 -6 -8 -11
-9 -15 -3 -3 6 -2 13 4 17 5 3 10 11 10 18 0 6 -7 1 -16 -11 -16 -23 -16 -23
-50 34 -28 46 -32 60 -22 71 21 26 16 38 -16 39 -17 1 -333 2 -702 3 -641 2
-673 3 -689 21 -9 10 -18 24 -19 32 -1 7 -7 23 -14 35 -15 27 -15 36 0 27 7
-4 8 -3 4 5 -4 6 -11 9 -15 6 -11 -6 -43 30 -35 38 4 4 304 7 667 7 674 0 677
0 677 35 0 6 -5 3 -10 -5 -8 -13 -10 -13 -11 3 -3 30 -4 35 -11 43 -5 4 -8 14
-7 23 0 12 3 11 9 -4 6 -13 9 -15 9 -5 0 8 -3 22 -9 30 -8 12 -10 12 -16 -3
-3 -9 -10 -15 -15 -12 -4 3 -5 13 -2 22 5 12 3 14 -7 8 -8 -5 -11 -4 -6 3 3 6
2 13 -4 17 -6 4 -8 10 -5 15 3 5 0 12 -6 16 -8 5 -10 2 -5 -7 4 -8 1 -6 -7 4
-17 21 -137 37 -137 18z m383 -395 c9 5 9 4 0 -6 -13 -15 -37 -4 -26 13 5 8 8
8 11 -1 2 -7 9 -9 15 -6z m-1768 -36 c3 -5 1 -10 -4 -10 -6 0 -11 5 -11 10 0
6 2 10 4 10 3 0 8 -4 11 -10z m1168 -137 c3 -3 1 -13 -4 -22 -10 -14 -42 -16
-292 -16 -276 1 -277 1 -38 -2 l243 -3 -6 -33 c-4 -23 -3 -28 4 -17 14 21 13
-4 -1 -33 -10 -21 -10 -21 6 -2 10 13 13 30 9 51 -5 29 -4 31 23 28 15 -1 29
-2 31 -3 1 -1 -3 -11 -9 -23 -12 -22 -12 -22 -21 -3 -8 18 -8 18 -4 -3 5 -28
-22 -85 -36 -75 -7 4 -9 0 -5 -10 3 -9 0 -23 -8 -31 -8 -7 -12 -16 -9 -19 3
-3 1 -8 -5 -11 -5 -4 -13 -1 -17 5 -5 8 -3 9 7 4 11 -6 12 -5 2 5 -17 18 -27
6 -15 -16 7 -12 4 -28 -11 -55 -11 -21 -23 -38 -26 -37 -18 2 -24 -3 -13 -10
9 -6 7 -13 -7 -29 -11 -11 -17 -24 -14 -27 4 -3 1 -6 -6 -6 -7 0 -10 -4 -7 -9
3 -4 -2 -17 -10 -27 -9 -10 -12 -13 -8 -5 5 9 3 12 -5 7 -6 -4 -9 -11 -6 -15
2 -5 -15 -43 -39 -85 -27 -46 -46 -71 -49 -62 -3 7 -1 18 5 24 8 8 7 16 -2 27
-12 15 -11 16 6 13 13 -2 18 2 16 15 -2 9 2 17 8 17 5 0 10 -5 10 -12 0 -22
13 1 16 30 2 22 -1 28 -17 29 -17 2 -18 0 -4 -13 21 -22 19 -40 -3 -21 -14 13
-21 14 -30 5 -7 -7 -12 -17 -12 -22 0 -6 4 -4 10 4 5 8 12 12 15 8 3 -3 -2
-13 -11 -22 -15 -16 -17 -16 -31 1 -13 17 -13 16 -3 -4 5 -12 15 -25 20 -28
12 -7 13 -25 2 -25 -5 0 -15 12 -23 28 -8 15 -24 42 -36 61 -13 18 -20 37 -17
42 3 5 0 9 -7 9 -8 0 -8 4 1 16 8 8 9 14 4 13 -20 -4 -23 2 -14 29 9 25 9 25
-4 8 -8 -10 -19 -15 -25 -11 -7 3 0 15 17 30 22 19 25 26 14 37 -11 11 -12 10
-6 -6 6 -15 4 -18 -9 -13 -10 4 -14 2 -11 -7 3 -7 -2 -13 -10 -13 -8 0 -13 4
-10 9 3 4 -1 8 -8 8 -7 0 -2 9 12 20 14 11 18 19 10 18 -8 -2 -18 -7 -22 -13
-5 -6 -12 -5 -20 4 -7 8 -8 11 -3 8 6 -3 10 10 10 33 0 21 -4 36 -9 33 -5 -3
-6 5 -3 18 6 25 -17 68 -27 51 -3 -5 0 -15 7 -20 7 -6 12 -27 12 -46 -1 -19 2
-33 7 -30 4 3 8 1 8 -5 0 -18 -19 -21 -24 -4 -3 10 -5 21 -3 25 1 3 -8 17 -21
30 -12 14 -19 28 -15 31 3 4 1 7 -5 7 -6 0 -16 10 -23 21 -7 13 -7 19 -1 15
11 -7 28 32 18 41 -3 4 -6 -1 -6 -10 0 -9 -4 -17 -9 -17 -11 0 -9 53 2 61 5 4
-3 7 -17 7 -14 0 -26 -5 -26 -10 0 -5 5 -6 12 -2 8 5 9 2 5 -10 -4 -10 -3 -15
3 -11 6 3 10 1 10 -4 0 -24 -20 -8 -44 35 -14 26 -26 48 -26 50 0 7 677 4 683
-3z m-824 -158 c0 -5 -6 -1 -14 9 -8 11 -15 24 -15 30 0 5 7 1 15 -10 8 -10
14 -23 14 -29z m1411 1 c0 -7 -7 -19 -15 -26 -12 -10 -15 -9 -15 7 0 11 3 23
7 26 11 12 23 8 23 -7z m-1428 -230 c6 4 8 2 5 -4 -4 -5 -15 -9 -25 -7 -9 2
-19 4 -22 4 -3 1 2 6 10 11 10 6 16 6 18 0 2 -6 9 -7 14 -4z m158 0 c0 -3 -4
-8 -10 -11 -5 -3 -10 -1 -10 4 0 6 5 11 10 11 6 0 10 -2 10 -4z m1030 -196
c-8 -5 -18 -6 -24 -3 -5 4 -1 10 10 13 24 9 34 2 14 -10z m-822 -191 c-10 -7
-9 -9 4 -9 17 0 19 -23 3 -37 -4 -4 -5 -3 -2 3 4 7 0 14 -7 17 -8 3 -14 15
-13 25 1 12 6 18 15 15 11 -5 11 -7 0 -14z m320 -179 c-7 -10 -14 -18 -15 -16
-6 6 9 36 18 36 5 0 4 -9 -3 -20z m-71 -160 c-1 -12 -5 -16 -10 -11 -5 5 -6
14 -3 20 11 16 15 13 13 -9z"/>
<path d="M1351 2035 c7 -6 660 -8 666 -1 3 3 -147 5 -333 6 -186 0 -336 -2
-333 -5z"/>
<path d="M1500 1915 c0 -5 5 -17 10 -25 5 -8 10 -10 10 -5 0 6 -5 17 -10 25
-5 8 -10 11 -10 5z"/>
<path d="M1436 1902 c-3 -5 1 -9 9 -9 8 0 15 4 15 9 0 4 -4 8 -9 8 -6 0 -12
-4 -15 -8z"/>
<path d="M1460 1860 c0 -5 5 -10 11 -10 5 0 7 5 4 10 -3 6 -8 10 -11 10 -2 0
-4 -4 -4 -10z"/>
<path d="M1847 1814 c-11 -11 -8 -26 3 -19 11 7 14 -8 3 -19 -4 -3 -8 -14 -9
-22 -1 -9 1 -13 4 -9 4 4 7 10 7 13 0 4 4 13 8 19 9 15 -5 47 -16 37z"/>
<path d="M1764 1726 c-1 -31 -1 -31 10 -6 6 14 15 28 21 32 5 4 1 6 -10 6 -15
-2 -20 -10 -21 -32z"/>
<path d="M1800 1735 c-8 -9 -8 -15 -2 -15 12 0 26 19 19 26 -2 2 -10 -2 -17
-11z"/>
<path d="M1784 1693 c2 -13 0 -23 -5 -23 -5 0 -9 5 -9 12 0 6 -3 8 -6 5 -4 -4
-1 -13 6 -22 11 -13 15 -12 32 11 11 14 18 28 14 31 -3 3 -9 -2 -13 -12 -6
-18 -7 -18 -15 1 -7 17 -8 16 -4 -3z"/>
<path d="M1767 1639 c7 -7 15 -10 18 -7 3 3 -2 9 -12 12 -14 6 -15 5 -6 -5z"/>
<path d="M1616 1591 c-3 -4 1 -17 9 -27 13 -17 14 -18 15 -1 0 9 -5 17 -11 17
-5 0 -7 5 -4 10 3 6 4 10 1 10 -3 0 -7 -4 -10 -9z"/>
<path d="M1648 1577 c4 -14 7 -16 13 -5 12 19 11 25 -5 25 -8 0 -11 -8 -8 -20z"/>
<path d="M912 2541 c-1 -9 -4 -34 -6 -56 -4 -26 -2 -35 4 -25 5 8 6 18 4 22
-10 15 7 50 21 44 10 -3 12 0 8 11 -5 12 -3 14 8 8 8 -4 11 -4 6 0 -13 15 -43
12 -45 -4z"/>
<path d="M885 2519 c-4 -6 -5 -12 -2 -15 2 -3 7 2 10 11 7 17 1 20 -8 4z"/>
<path d="M1220 2299 c6 -10 6 -19 1 -21 -5 -2 -3 -9 5 -16 11 -10 13 -8 10 18
-4 36 0 37 23 8 l18 -21 -2 24 c-1 19 -7 24 -33 25 -27 1 -30 -1 -22 -17z"/>
<path d="M2625 2181 c-3 -5 -2 -12 3 -15 5 -3 9 1 9 9 0 17 -3 19 -12 6z"/>
<path d="M690 2155 c0 -5 5 -17 10 -25 5 -8 10 -10 10 -5 0 6 -5 17 -10 25 -5
8 -10 11 -10 5z"/>
<path d="M936 2140 c10 -39 21 -44 21 -10 0 17 -4 26 -7 19 -6 -8 -9 -7 -14 2
-3 8 -3 3 0 -11z"/>
<path d="M2665 2131 c1 -14 3 -30 4 -36 1 -5 6 -3 11 5 5 8 7 23 4 33 -7 21 5
22 20 1 10 -13 12 -13 12 4 0 13 -8 18 -27 18 -24 0 -27 -3 -24 -25z"/>
<path d="M876 2135 c4 -8 11 -15 16 -15 6 0 5 6 -2 15 -7 8 -14 15 -16 15 -2
0 -1 -7 2 -15z"/>
<path d="M676 2110 c8 -43 10 -46 16 -22 3 10 -1 27 -9 37 -12 17 -13 16 -7
-15z"/>
<path d="M645 2110 c-3 -5 -1 -10 4 -10 6 0 11 5 11 10 0 6 -2 10 -4 10 -3 0
-8 -4 -11 -10z"/>
<path d="M1042 2084 c-2 -19 -1 -34 2 -34 7 0 13 61 6 65 -3 2 -7 -12 -8 -31z"/>
<path d="M656 2082 c-2 -4 -1 -14 5 -22 7 -12 9 -10 9 8 0 23 -5 28 -14 14z"/>
<path d="M935 2080 c3 -5 8 -10 11 -10 2 0 4 5 4 10 0 6 -5 10 -11 10 -5 0 -7
-4 -4 -10z"/>
<path d="M1066 2051 c4 -16 3 -21 -5 -17 -7 5 -11 -1 -11 -15 0 -22 0 -22 16
-3 15 19 16 19 9 0 -6 -19 -5 -19 15 -1 23 21 26 29 8 22 -7 -2 -19 5 -26 17
-13 20 -13 20 -6 -3z"/>
<path d="M652 2014 c-7 -8 -8 -14 -3 -14 10 0 25 19 20 25 -2 1 -10 -3 -17
-11z"/>
<path d="M2665 1970 c-10 -11 -15 -23 -12 -27 7 -6 36 25 37 40 0 11 -6 8 -25
-13z"/>
<path d="M1128 1969 c7 -9 12 -21 11 -25 -5 -30 4 -58 27 -81 14 -14 28 -23
31 -20 3 3 -7 16 -21 29 -19 16 -27 33 -28 56 -1 17 -8 38 -17 45 -14 10 -14
10 -3 -4z"/>
<path d="M2341 1944 c0 -11 3 -14 6 -6 3 7 2 16 -1 19 -3 4 -6 -2 -5 -13z"/>
<path d="M2695 1939 c-11 -17 1 -21 15 -4 8 9 8 15 2 15 -6 0 -14 -5 -17 -11z"/>
<path d="M753 1893 c-3 -10 -13 -26 -21 -36 -14 -16 -14 -17 0 -12 15 6 44 65
32 65 -2 0 -7 -8 -11 -17z"/>
<path d="M2320 1905 c0 -5 5 -17 10 -25 5 -8 10 -10 10 -5 0 6 -5 17 -10 25
-5 8 -10 11 -10 5z"/>
<path d="M1120 1848 c-10 -18 -10 -21 0 -11 7 6 20 9 29 6 9 -3 12 -1 6 4 -5
4 -13 12 -17 16 -3 5 -12 -2 -18 -15z"/>
<path d="M1200 1819 c0 -5 5 -7 10 -4 6 3 10 8 10 11 0 2 -4 4 -10 4 -5 0 -10
-5 -10 -11z"/>
<path d="M1216 1794 c-7 -19 0 -34 17 -34 7 0 6 4 -3 11 -11 8 -12 12 -2 16
14 5 16 23 3 23 -5 0 -12 -7 -15 -16z"/>
<path d="M1081 1783 c7 -12 15 -20 18 -17 3 2 -3 12 -13 22 -17 16 -18 16 -5
-5z"/>
<path d="M803 1765 c0 -8 4 -12 9 -9 5 3 6 10 3 15 -9 13 -12 11 -12 -6z"/>
<path d="M841 1743 c-1 -12 4 -25 9 -28 12 -7 12 2 0 30 -8 19 -9 19 -9 -2z"/>
<path d="M1185 1740 c3 -5 8 -10 11 -10 2 0 4 5 4 10 0 6 -5 10 -11 10 -5 0
-7 -4 -4 -10z"/>
<path d="M1135 1730 c-3 -5 1 -10 10 -10 9 0 13 5 10 10 -3 6 -8 10 -10 10 -2
0 -7 -4 -10 -10z"/>
<path d="M2520 1730 c0 -5 6 -10 14 -10 8 0 18 5 21 10 3 6 -3 10 -14 10 -12
0 -21 -4 -21 -10z"/>
<path d="M2127 1723 c-4 -3 -7 -11 -7 -17 0 -6 5 -5 12 2 6 6 9 14 7 17 -3 3
-9 2 -12 -2z"/>
<path d="M2142 1694 c-7 -8 -8 -14 -3 -14 10 0 25 19 20 25 -2 1 -10 -3 -17
-11z"/>
<path d="M2520 1696 c0 -9 5 -16 10 -16 6 0 10 4 10 9 0 6 -4 13 -10 16 -5 3
-10 -1 -10 -9z"/>
<path d="M2166 1668 c3 -5 10 -6 15 -3 13 9 11 12 -6 12 -8 0 -12 -4 -9 -9z"/>
<path d="M2200 1671 c0 -6 4 -13 10 -16 6 -3 7 1 4 9 -7 18 -14 21 -14 7z"/>
<path d="M1282 1646 c1 -14 5 -23 9 -20 7 4 0 44 -7 44 -2 0 -3 -11 -2 -24z"/>
<path d="M2051 1643 c-12 -13 -12 -16 0 -24 18 -11 33 5 23 24 -8 13 -11 13
-23 0z"/>
<path d="M2457 1636 c-14 -11 -15 -16 -6 -22 9 -5 8 -9 -4 -13 -15 -6 -15 -7
2 -18 17 -10 20 -10 19 5 0 9 3 27 5 40 7 26 7 25 -16 8z"/>
<path d="M904 1614 c-18 -14 -18 -15 4 -4 12 6 22 13 22 15 0 8 -5 6 -26 -11z"/>
<path d="M1195 1590 c-3 -5 -1 -10 4 -10 6 0 11 5 11 10 0 6 -2 10 -4 10 -3 0
-8 -4 -11 -10z"/>
<path d="M1260 1589 c0 -5 5 -7 10 -4 6 3 10 8 10 11 0 2 -4 4 -10 4 -5 0 -10
-5 -10 -11z"/>
<path d="M2120 1590 c-12 -8 -10 -10 8 -10 13 0 20 4 17 10 -7 12 -6 12 -25 0z"/>
<path d="M2432 1563 c9 -10 17 -24 19 -31 3 -8 8 -6 16 8 10 16 10 18 -1 14
-7 -3 -16 2 -19 10 -4 9 -12 16 -18 16 -8 0 -7 -6 3 -17z"/>
<path d="M2080 1559 c0 -5 5 -7 10 -4 6 3 10 8 10 11 0 2 -4 4 -10 4 -5 0 -10
-5 -10 -11z"/>
<path d="M2117 1553 c-4 -3 -7 -11 -7 -17 0 -6 5 -5 12 2 6 6 9 14 7 17 -3 3
-9 2 -12 -2z"/>
<path d="M1260 1517 c12 -16 12 -20 -1 -28 -9 -5 -10 -9 -2 -9 22 0 26 22 7
38 -17 16 -17 16 -4 -1z"/>
<path d="M1366 1521 c-4 -5 -2 -12 3 -15 5 -4 12 -2 15 3 4 5 2 12 -3 15 -5 4
-12 2 -15 -3z"/>
<path d="M964 1508 c-4 -7 -3 -10 1 -5 5 4 18 -1 29 -10 21 -18 21 -18 2 5
-22 26 -23 26 -32 10z"/>
<path d="M2100 1515 c0 -7 30 -13 34 -7 3 4 -4 9 -15 9 -10 1 -19 0 -19 -2z"/>
<path d="M967 1483 c-10 -10 -8 -25 2 -19 5 3 12 -1 15 -10 4 -9 9 -14 12 -11
3 3 0 15 -8 26 -8 12 -18 18 -21 14z"/>
<path d="M1368 1480 c15 -18 16 -34 0 -24 -7 4 -8 3 -4 -4 4 -7 11 -12 17 -12
15 0 10 27 -8 41 -15 11 -16 11 -5 -1z"/>
<path d="M1320 1435 c0 -7 30 -13 34 -7 3 4 -4 9 -15 9 -10 1 -19 0 -19 -2z"/>
<path d="M2021 1432 c-1 -7 -4 -11 -9 -8 -4 2 -7 -17 -7 -44 0 -46 11 -58 32
-35 4 4 2 5 -4 1 -15 -9 -17 12 -3 34 8 12 10 12 10 1 0 -11 3 -11 15 -1 11 9
12 15 5 20 -6 4 -8 15 -4 26 3 10 -4 4 -15 -15 -12 -18 -25 -31 -28 -27 -3 3
0 12 7 20 6 9 10 21 7 28 -4 10 -6 10 -6 0z"/>
<path d="M1045 1380 c4 -37 10 -46 20 -31 3 6 0 11 -7 11 -9 0 -10 2 -1 8 8 5
8 12 -3 26 -12 17 -13 16 -9 -14z"/>
<path d="M1330 1400 c0 -4 6 -12 13 -18 10 -8 13 -6 13 7 0 10 -6 18 -13 18
-7 0 -13 -4 -13 -7z"/>
<path d="M1071 1328 c-10 -16 -15 -18 -21 -8 -5 8 -8 4 -7 -13 l2 -26 22 27
c23 28 30 24 13 -8 -8 -16 -8 -18 5 -14 16 7 20 31 7 51 -5 9 -11 6 -21 -9z"/>
<path d="M2275 1330 c-3 -5 -1 -10 4 -10 6 0 11 5 11 10 0 6 -2 10 -4 10 -3 0
-8 -4 -11 -10z"/>
<path d="M1865 1320 c-3 -5 -2 -18 4 -27 7 -14 9 -12 8 10 -2 30 -3 31 -12 17z"/>
<path d="M2005 1309 c-4 -6 -5 -12 -2 -15 2 -3 7 2 10 11 7 17 1 20 -8 4z"/>
<path d="M1900 1294 c0 -8 5 -12 10 -9 6 4 8 11 5 16 -9 14 -15 11 -15 -7z"/>
<path d="M2280 1300 c-8 -6 -13 -10 -10 -11 44 -7 53 -8 45 -1 -5 4 -12 10
-15 14 -3 4 -12 3 -20 -2z"/>
<path d="M1835 1290 c3 -5 8 -10 11 -10 2 0 4 5 4 10 0 6 -5 10 -11 10 -5 0
-7 -4 -4 -10z"/>
<path d="M1390 1268 c0 -5 5 -6 12 -2 7 5 9 2 5 -9 -3 -9 0 -18 9 -21 9 -3 12
-2 9 5 -4 5 -2 15 3 22 8 9 4 12 -14 13 -13 1 -24 -2 -24 -8z"/>
<path d="M1929 1275 c-1 0 -3 -10 -4 -22 -1 -13 2 -20 7 -16 6 3 7 -3 3 -16
-3 -11 -3 -21 2 -21 12 0 14 38 2 45 -5 4 -9 11 -9 17 0 7 5 7 14 -1 10 -9 15
-8 19 3 5 12 -13 18 -34 11z"/>
<path d="M2219 1233 c-13 -16 -12 -17 4 -4 16 13 21 21 13 21 -2 0 -10 -8 -17
-17z"/>
<path d="M1124 1171 c1 -44 3 -48 24 -46 28 3 37 11 23 20 -6 3 -11 0 -11 -7
-1 -8 -6 -6 -15 6 -8 11 -15 29 -14 40 0 20 1 20 9 -1 5 -13 11 -23 14 -23 8
0 -6 40 -19 50 -9 8 -12 -1 -11 -39z"/>
<path d="M2225 1210 c-3 -5 -1 -10 4 -10 6 0 11 5 11 10 0 6 -2 10 -4 10 -3 0
-8 -4 -11 -10z"/>
<path d="M1455 1180 c-3 -11 -4 -24 0 -29 7 -12 35 -3 35 11 0 6 -6 5 -15 -2
-17 -15 -19 -7 -5 21 7 12 7 19 1 19 -5 0 -12 -9 -16 -20z"/>
<path d="M1800 1187 c0 -9 -8 -20 -17 -26 -10 -5 -15 -12 -11 -16 3 -4 16 3
28 15 16 16 19 25 11 33 -8 8 -11 6 -11 -6z"/>
<path d="M2204 1193 c8 -16 -3 -42 -17 -39 -7 1 -9 1 -4 -1 4 -3 7 -11 7 -19
0 -17 14 -18 27 -1 12 15 27 54 17 44 -4 -4 -13 1 -21 11 -8 9 -12 12 -9 5z
m7 -50 c-12 -20 -14 -14 -5 12 4 9 9 14 11 11 3 -2 0 -13 -6 -23z"/>
<path d="M1170 1176 c0 -2 8 -10 18 -17 15 -13 16 -12 3 4 -13 16 -21 21 -21
13z"/>
<path d="M1815 1139 c-11 -17 1 -21 15 -4 8 9 8 15 2 15 -6 0 -14 -5 -17 -11z"/>
<path d="M1731 1094 c0 -11 3 -14 6 -6 3 7 2 16 -1 19 -3 4 -6 -2 -5 -13z"/>
<path d="M1743 1067 c-8 -17 -8 -24 0 -24 7 0 13 11 13 24 2 29 0 29 -13 0z"/>
<path d="M2145 1080 c-10 -17 -14 -51 -5 -45 4 3 10 -1 12 -7 3 -7 4 4 4 24
-1 41 -2 43 -11 28z"/>
<path d="M1765 1029 c-11 -17 1 -21 15 -4 8 9 8 15 2 15 -6 0 -14 -5 -17 -11z"/>
<path d="M1820 1026 c0 -2 7 -7 16 -10 8 -3 12 -2 9 4 -6 10 -25 14 -25 6z"/>
<path d="M2125 999 c-4 -6 -4 -13 -1 -16 3 -4 6 -1 6 7 0 10 3 10 15 0 13 -11
14 -10 9 4 -7 18 -20 21 -29 5z"/>
<path d="M1807 993 c-4 -3 -7 -11 -7 -17 0 -6 5 -5 12 2 6 6 9 14 7 17 -3 3
-9 2 -12 -2z"/>
<path d="M1281 934 c0 -11 3 -14 6 -6 3 7 2 16 -1 19 -3 4 -6 -2 -5 -13z"/>
<path d="M1300 936 c0 -8 -3 -21 -6 -29 -3 -8 1 -17 8 -20 10 -3 13 4 10 29
-4 34 -12 47 -12 20z"/>
<path d="M1626 925 c-3 -9 -6 -24 -5 -33 0 -9 5 -4 10 12 9 32 6 48 -5 21z"/>
<path d="M1650 931 c1 -3 7 -17 14 -30 l13 -24 -1 30 c0 16 -7 30 -13 30 -7 0
-13 -3 -13 -6z"/>
<path d="M2046 932 c-4 -7 2 -22 15 -34 19 -20 20 -21 12 -3 -6 11 -12 27 -15
35 -3 10 -6 11 -12 2z"/>
<path d="M1640 901 c0 -6 4 -13 10 -16 6 -3 7 1 4 9 -7 18 -14 21 -14 7z"/>
</g>
</svg>
